<svg aria-hidden="true" style="position: absolute; width: 0; height: 0; overflow: hidden;" version="1.1" xmlns="http://www.w3.org/2000/svg" xmlns:xlink="http://www.w3.org/1999/xlink">
<defs>
<symbol id="icon-call_made" viewBox="0 0 24 24">
<path d="M9 5.016h9.984v9.984h-1.969v-6.609l-11.625 11.625-1.406-1.406 11.625-11.625h-6.609v-1.969z"></path>
</symbol>
<symbol id="icon-remove" viewBox="0 0 24 24">
<path d="M18.984 12.984h-13.969v-1.969h13.969v1.969z"></path>
</symbol>
<symbol id="icon-thumb_down_off_alt" viewBox="0 0 24 24">
<path d="M20.016 15q-0.422 0-0.727-0.281t-0.305-0.703v-9q0-0.422 0.305-0.727t0.727-0.305h1.969v11.016h-1.969zM9.984 21.984l-0.422-0.469q-0.563-0.563-0.891-1.219-0.141-0.328-0.094-0.656l0.938-4.641h-5.531q-0.797 0-1.383-0.609t-0.586-1.406v-1.078q0-0.469 0.141-0.797l2.672-6.141q0.609-0.984 1.734-0.984h8.109q0.984 0 1.664 0.68t0.68 1.664v7.828q0 0.844-0.609 1.453zM10.875 18.281l4.125-4.078v-7.875q0-0.328-0.328-0.328h-8.109l-2.578 5.906v1.078h5.531q0.891 0 1.523 0.727t0.398 1.664z"></path>
</symbol>
<symbol id="icon-thumb_up_off_alt" viewBox="0 0 24 24">
<path d="M3.984 9q0.422 0 0.727 0.281t0.305 0.703v9q0 0.422-0.305 0.727t-0.727 0.305h-1.969v-11.016h1.969zM14.016 2.016l0.422 0.469q0.563 0.563 0.891 1.219 0.141 0.328 0.094 0.656l-0.938 4.641h5.531q0.797 0 1.383 0.609t0.586 1.406v1.078q0 0.422-0.141 0.797l-2.672 6.141q-0.609 0.984-1.734 0.984h-8.109q-0.984 0-1.664-0.68t-0.68-1.664v-7.828q0-0.844 0.609-1.453zM13.125 5.719l-4.125 4.078v7.875q0 0.328 0.328 0.328h8.109l2.578-5.906v-1.078h-5.531q-0.891 0-1.523-0.727t-0.398-1.664z"></path>
</symbol>
<symbol id="icon-message" viewBox="0 0 20 20">
<path d="M18 6v7c0 1.1-0.9 2-2 2h-4v3l-4-3h-4c-1.101 0-2-0.9-2-2v-7c0-1.1 0.899-2 2-2h12c1.1 0 2 0.9 2 2z"></path>
</symbol>
</defs>
</svg>
